<?xml version="1.0" standalone="no"?>
<!DOCTYPE svg PUBLIC "-//W3C//DTD SVG 20010904//EN"
 "http://www.w3.org/TR/2001/REC-SVG-20010904/DTD/svg10.dtd">
<svg version="1.0" xmlns="http://www.w3.org/2000/svg"
 width="512.000000pt" height="512.000000pt" viewBox="0 0 512.000000 512.000000"
 preserveAspectRatio="xMidYMid meet">
<metadata>
Created by potrace 1.16, written by Peter Selinger 2001-2019
</metadata>
<g transform="translate(0.000000,512.000000) scale(0.100000,-0.100000)"
fill="#000000" stroke="none">
<path d="M1860 5105 c-99 -27 -194 -81 -274 -156 -42 -39 -79 -82 -82 -95 -13
-51 31 -104 86 -104 11 0 52 29 91 65 127 117 212 150 363 143 95 -4 166 -28
239 -80 l32 -23 -100 -5 c-67 -4 -112 -12 -137 -24 -20 -10 -41 -16 -45 -13
-13 8 -123 -13 -157 -29 -17 -9 -122 -107 -233 -217 -158 -157 -207 -211 -223
-250 -30 -70 -36 -142 -16 -209 10 -37 16 -94 16 -169 l0 -113 -46 44 c-25 25
-60 75 -78 112 -93 184 -61 373 90 538 49 54 64 77 64 100 0 42 -39 80 -82 80
-28 0 -44 -11 -103 -73 -126 -130 -180 -263 -179 -442 1 -93 5 -122 28 -190
15 -44 43 -105 62 -136 38 -64 150 -174 207 -204 35 -18 37 -22 37 -67 l0 -48
-55 0 c-182 0 -335 -92 -412 -248 -37 -74 -38 -79 -41 -208 l-4 -132 -86 -51
c-130 -77 -216 -144 -322 -251 -214 -216 -353 -476 -422 -787 -30 -134 -32
-461 -5 -598 99 -488 407 -893 842 -1106 150 -73 275 -114 430 -141 169 -29
450 -22 605 15 194 46 368 121 525 226 l87 58 94 -64 c156 -104 318 -173 514
-220 156 -37 436 -44 606 -15 575 99 1055 518 1222 1067 58 191 67 251 66 475
0 172 -4 221 -22 303 -100 452 -365 820 -753 1043 l-77 45 -4 132 c-3 124 -5
136 -34 198 -77 163 -233 259 -418 259 l-56 0 0 48 c0 45 2 49 37 67 61 32
171 144 213 214 60 102 84 196 84 321 0 120 -16 187 -72 295 -30 60 -70 104
-266 301 -210 210 -238 235 -306 267 -102 50 -177 67 -290 67 -150 0 -259 -35
-377 -123 -34 -26 -79 -69 -100 -96 -52 -68 -74 -67 -134 8 -58 72 -162 143
-259 178 -63 23 -95 27 -195 30 -83 2 -137 -2 -175 -12z m1383 -165 c91 -28
154 -79 368 -296 205 -209 237 -255 260 -383 23 -133 -29 -296 -125 -391 l-46
-44 0 113 c0 75 6 132 16 169 20 67 14 139 -16 209 -16 39 -65 93 -223 250
-111 110 -216 208 -233 217 -34 16 -141 37 -159 29 -6 -2 -31 5 -56 16 -33 16
-66 21 -132 21 -96 0 -100 5 -37 45 104 66 257 84 383 45z m-257 -269 c63 -38
69 -123 13 -177 l-30 -29 -409 0 -409 0 -30 29 c-56 54 -50 139 13 177 29 18
57 19 426 19 369 0 397 -1 426 -19z m-1038 -218 c11 -21 40 -57 65 -80 l44
-41 -68 -68 -68 -67 -42 37 c-22 21 -57 45 -77 53 -40 17 -132 22 -177 10 -24
-7 2 24 130 153 l160 160 7 -59 c4 -32 16 -77 26 -98z m1569 -159 c-1 -2 -22
2 -46 7 -46 10 -133 -1 -172 -21 -11 -7 -39 -28 -60 -47 l-40 -36 -68 67 -68
68 44 41 c57 53 84 106 91 180 l5 59 158 -158 c87 -87 157 -159 156 -160z
m-1104 -26 c-10 -18 -112 -127 -228 -243 l-210 -210 -3 99 -3 100 143 143 143
143 88 0 88 0 -18 -32z m595 -111 l143 -143 -3 -100 -3 -99 -210 210 c-116
116 -218 225 -228 243 l-18 32 88 0 88 0 143 -143z m-424 1 c36 -61 430 -450
501 -493 l65 -40 -3 -48 -2 -48 -57 -23 c-117 -48 -203 -135 -249 -256 -17
-42 -23 -85 -27 -182 l-5 -127 -30 -12 c-16 -7 -72 -41 -123 -75 l-94 -63 -94
63 c-51 34 -107 68 -123 75 l-30 12 -5 127 c-6 147 -25 208 -89 295 -48 64
-110 111 -188 143 l-56 23 -3 48 -3 48 53 29 c61 34 449 412 501 488 18 26 34
48 37 48 3 0 14 -15 24 -32z m-850 -22 c18 -7 43 -26 55 -42 22 -27 22 -28 19
-437 l-3 -409 -33 -29 c-58 -52 -149 -33 -178 38 -11 25 -14 114 -14 415 0
366 1 384 20 416 11 18 35 39 53 47 40 18 41 18 81 1z m1754 -12 c49 -32 52
-55 52 -459 0 -295 -3 -383 -14 -408 -29 -71 -120 -90 -178 -38 l-33 29 -3
409 c-3 409 -3 410 19 437 42 54 102 65 157 30z m-2065 -822 c11 -170 114
-272 271 -272 159 1 264 99 274 257 l5 72 26 -13 c42 -22 102 -88 125 -136 17
-38 21 -68 24 -195 2 -93 8 -156 15 -166 7 -8 48 -34 92 -58 64 -35 149 -87
174 -107 2 -2 -23 -32 -55 -66 -54 -58 -143 -170 -163 -205 -6 -12 -18 -8 -66
22 -225 144 -546 189 -816 114 -89 -25 -217 -83 -296 -136 -74 -48 -192 -161
-252 -238 -53 -70 -131 -217 -157 -298 l-17 -56 -28 20 c-72 51 -222 69 -301
36 l-36 -15 19 68 c100 362 371 693 705 864 40 20 78 44 85 53 10 11 16 62 19
177 6 179 16 210 82 272 59 57 123 81 214 83 l51 1 6 -78z m2474 45 c27 -14
64 -42 81 -61 61 -70 66 -87 72 -262 3 -106 9 -166 17 -176 7 -8 46 -32 85
-53 309 -161 550 -434 675 -765 40 -106 73 -267 80 -391 5 -108 4 -120 -17
-163 -63 -132 -254 -136 -318 -8 -13 24 -23 79 -30 162 -24 256 -110 452 -277
629 -95 100 -181 163 -300 221 -179 88 -364 121 -554 100 -290 -32 -529 -162
-707 -384 -67 -84 -154 -247 -175 -327 l-12 -46 -67 35 c-58 30 -77 34 -141
35 -41 0 -91 -5 -112 -12 -21 -7 -40 -11 -42 -9 -9 9 52 185 95 275 131 275
369 521 634 655 33 17 66 38 73 47 8 11 12 59 13 147 0 192 30 267 133 337
l42 28 6 -73 c14 -161 116 -257 275 -258 158 0 260 102 272 273 l5 80 72 -6
c49 -3 88 -13 122 -30z m-2079 -948 c77 -20 236 -92 281 -127 l23 -19 -25 -49
c-149 -296 -182 -733 -80 -1084 13 -47 42 -127 63 -178 l39 -93 -56 -36 c-141
-90 -276 -127 -458 -127 -157 0 -228 16 -370 83 -309 146 -498 445 -498 786 0
234 81 432 247 603 219 227 535 318 834 241z m1900 1 c153 -37 281 -108 400
-224 177 -171 266 -381 265 -626 -1 -219 -70 -399 -220 -576 -53 -63 -59 -110
-17 -143 43 -34 81 -28 127 22 90 97 182 252 222 375 9 29 20 51 23 50 118
-64 208 -80 300 -55 64 17 63 19 21 -107 -166 -498 -601 -864 -1122 -946 -103
-16 -324 -13 -435 6 -346 58 -675 260 -887 542 -167 223 -272 522 -276 787 -2
102 18 157 68 193 132 94 292 1 293 -169 0 -138 45 -311 116 -449 136 -263
369 -449 662 -527 133 -36 362 -38 492 -6 110 28 256 89 275 116 21 30 19 70
-6 101 -25 32 -66 34 -129 5 -279 -129 -587 -113 -833 44 l-56 36 39 93 c85
204 121 384 121 606 0 231 -44 452 -127 632 l-35 74 23 18 c44 34 174 96 245
118 143 43 297 47 451 10z m-805 -352 c66 -175 107 -431 85 -533 -18 -78 -97
-145 -173 -145 -74 0 -168 76 -181 146 -17 90 21 282 80 407 33 70 133 217
147 217 4 0 22 -42 42 -92z m-2433 -339 c66 -37 82 -75 97 -223 7 -73 24 -171
38 -221 102 -353 388 -626 752 -717 126 -31 350 -31 476 0 104 26 212 69 292
117 32 19 61 35 65 35 5 0 30 -30 56 -66 26 -37 76 -97 111 -134 34 -37 63
-70 63 -73 0 -9 -121 -82 -210 -127 -354 -178 -793 -189 -1161 -31 -486 210
-818 681 -846 1202 -7 123 3 161 51 208 64 62 140 72 216 30z m2469 -539 c-25
-90 -69 -200 -80 -200 -19 0 -159 219 -159 249 0 5 15 5 38 0 52 -12 120 -10
167 6 22 7 43 13 47 14 4 1 -2 -30 -13 -69z"/>
</g>
</svg>
