<?xml version="1.0" standalone="no"?>
<!DOCTYPE svg PUBLIC "-//W3C//DTD SVG 20010904//EN"
 "http://www.w3.org/TR/2001/REC-SVG-20010904/DTD/svg10.dtd">
<svg version="1.0" xmlns="http://www.w3.org/2000/svg"
 width="512.000000pt" height="512.000000pt" viewBox="0 0 512.000000 512.000000"
 preserveAspectRatio="xMidYMid meet">
<metadata>
Created by potrace 1.16, written by Peter Selinger 2001-2019
</metadata>
<g transform="translate(0.000000,512.000000) scale(0.100000,-0.100000)"
fill="#000000" stroke="none">
<path d="M180 5103 c-64 -23 -142 -105 -165 -172 -26 -78 -18 -193 18 -254 35
-58 97 -112 155 -131 60 -21 156 -20 218 1 63 22 147 104 165 161 l12 42 566
0 566 0 -100 -43 c-177 -76 -418 -223 -512 -313 -49 -46 -55 -77 -22 -118 33
-42 82 -36 152 17 237 185 571 339 867 402 164 34 160 35 160 -21 0 -58 22
-105 59 -127 25 -15 59 -17 241 -17 182 0 216 2 241 17 37 22 59 69 59 127 0
56 -3 55 153 22 336 -71 681 -239 942 -458 240 -201 428 -442 564 -721 100
-203 154 -370 198 -607 26 -136 26 -564 0 -700 -44 -237 -98 -404 -198 -607
-213 -438 -564 -790 -1001 -1003 -158 -78 -333 -138 -501 -175 -160 -34 -157
-35 -157 21 0 58 -22 105 -59 127 -25 15 -59 17 -241 17 -182 0 -216 -2 -241
-17 -37 -22 -59 -69 -59 -127 0 -56 3 -55 -153 -22 -477 101 -913 367 -1239
756 -182 217 -348 547 -423 839 -53 207 -60 270 -60 541 0 271 7 334 60 541
79 310 235 611 447 866 73 88 80 100 74 131 -7 45 -21 60 -62 68 -47 9 -67 -7
-162 -125 -272 -338 -433 -704 -503 -1141 -19 -115 -19 -565 0 -680 85 -531
316 -981 692 -1345 209 -202 422 -346 674 -457 l110 -48 -566 0 -566 0 -11 38
c-15 50 -72 115 -129 149 -60 35 -176 44 -250 19 -62 -20 -124 -73 -160 -133
-36 -61 -44 -176 -18 -254 24 -70 101 -149 169 -172 102 -35 226 -16 300 45
43 36 96 112 96 140 0 17 37 18 840 18 l840 0 0 -61 c0 -72 19 -118 59 -142
25 -15 59 -17 241 -17 182 0 216 2 241 17 40 24 59 70 59 142 l0 61 464 0 465
0 20 26 c12 15 21 37 21 49 0 12 -9 34 -21 49 l-20 26 -192 0 -192 0 110 48
c518 227 956 664 1187 1185 80 181 146 409 179 617 19 115 19 565 0 680 -33
208 -99 436 -179 617 -232 523 -681 970 -1197 1190 l-100 43 568 0 c540 0 567
-1 567 -18 0 -28 53 -104 96 -140 74 -61 198 -80 300 -45 68 23 145 102 169
172 26 78 18 193 -18 254 -36 60 -98 113 -160 133 -74 25 -190 16 -250 -19
-57 -34 -114 -99 -129 -149 l-11 -38 -839 0 -838 0 0 61 c0 72 -19 118 -59
142 -25 15 -59 17 -241 17 -182 0 -216 -2 -241 -17 -40 -24 -59 -70 -59 -142
l0 -61 -839 0 -839 0 -5 28 c-12 62 -100 151 -174 178 -51 18 -168 16 -223 -3z
m2520 -278 l0 -145 -140 0 -140 0 0 145 0 145 140 0 140 0 0 -145z m-2339 120
c91 -48 90 -193 -2 -241 -119 -61 -245 67 -184 187 32 62 121 87 186 54z
m4530 0 c91 -48 90 -193 -2 -241 -119 -61 -245 67 -184 187 32 62 121 87 186
54z m-2191 -4650 l0 -145 -140 0 -140 0 0 145 0 145 140 0 140 0 0 -145z
m-2339 120 c91 -48 90 -193 -2 -241 -119 -61 -245 67 -184 187 32 62 121 87
186 54z"/>
<path d="M2290 4374 c-651 -99 -1196 -534 -1440 -1149 -133 -334 -157 -769
-64 -1125 97 -372 300 -695 589 -938 270 -226 580 -366 926 -417 137 -19 381
-19 518 0 810 118 1438 746 1556 1556 19 137 19 381 -1 518 -118 811 -744
1437 -1555 1555 -133 20 -399 19 -529 0z m598 -173 c669 -144 1169 -646 1313
-1317 21 -96 24 -134 23 -329 0 -188 -3 -234 -22 -319 -151 -681 -644 -1173
-1320 -1318 -93 -20 -135 -23 -322 -23 -188 0 -229 3 -324 24 -672 144 -1173
645 -1317 1317 -21 95 -24 136 -24 324 0 242 15 342 82 534 194 566 676 991
1254 1105 153 30 148 29 364 26 153 -3 222 -8 293 -24z"/>
<path d="M1184 2962 c-12 -2 -30 -12 -40 -24 -18 -19 -19 -44 -19 -379 0 -345
1 -359 20 -378 22 -21 85 -27 243 -23 96 2 122 19 122 77 0 61 -25 75 -135 75
l-95 0 0 303 c0 250 -3 306 -15 324 -15 21 -45 31 -81 25z"/>
<path d="M1819 2959 c-217 -24 -380 -248 -340 -466 32 -175 168 -308 337 -331
186 -24 350 62 427 225 30 63 32 76 32 173 0 97 -2 110 -32 172 -77 163 -236
248 -424 227z m175 -188 c219 -116 134 -453 -114 -453 -109 0 -204 70 -234
173 -20 65 -20 73 -1 137 26 87 100 155 187 171 59 11 104 3 162 -28z"/>
<path d="M2699 2960 c-121 -15 -249 -106 -304 -217 -110 -225 -3 -484 235
-568 58 -21 191 -21 248 -1 139 49 232 192 236 358 2 102 -8 108 -174 108
-153 0 -175 -10 -175 -79 0 -60 21 -75 111 -81 l75 -5 -27 -53 c-77 -154 -297
-136 -387 33 -15 29 -21 58 -21 105 0 183 180 294 350 216 70 -32 98 -33 129
-1 41 40 29 99 -27 133 -71 43 -172 63 -269 52z"/>
<path d="M3525 2958 c-123 -16 -243 -105 -301 -223 -27 -56 -29 -68 -29 -175
0 -107 2 -119 29 -175 59 -119 177 -206 304 -223 135 -19 256 21 348 112 181
182 151 484 -63 625 -79 52 -182 73 -288 59z m172 -180 c83 -38 136 -124 136
-218 0 -182 -189 -298 -351 -216 -206 104 -160 413 68 456 48 9 97 2 147 -22z"/>
<path d="M4717 576 c-74 -27 -162 -116 -174 -178 l-5 -28 -239 0 c-226 0 -240
-1 -259 -20 -12 -12 -20 -33 -20 -55 0 -22 8 -43 20 -55 19 -19 33 -20 258
-20 l239 0 12 -42 c18 -57 102 -139 165 -161 63 -22 159 -22 222 0 66 22 145
101 167 167 22 63 22 159 0 222 -22 66 -101 145 -167 167 -59 20 -166 21 -219
3z m174 -161 c91 -48 90 -193 -2 -241 -119 -61 -245 67 -184 187 32 62 121 87
186 54z"/>
</g>
</svg>
