<?xml version="1.0" standalone="no"?>
<!DOCTYPE svg PUBLIC "-//W3C//DTD SVG 20010904//EN"
 "http://www.w3.org/TR/2001/REC-SVG-20010904/DTD/svg10.dtd">
<svg version="1.0" xmlns="http://www.w3.org/2000/svg"
 width="512.000000pt" height="512.000000pt" viewBox="0 0 512.000000 512.000000"
 preserveAspectRatio="xMidYMid meet">
<metadata>
Created by potrace 1.16, written by Peter Selinger 2001-2019
</metadata>
<g transform="translate(0.000000,512.000000) scale(0.100000,-0.100000)"
fill="#000000" stroke="none">
<path d="M1582 3972 c-12 -8 -178 -739 -169 -748 2 -3 104 5 227 16 122 11
225 20 230 20 4 0 42 -77 85 -170 60 -131 83 -171 99 -175 12 -2 86 -14 166
-25 102 -15 150 -26 161 -38 9 -9 108 -141 219 -292 112 -151 204 -277 206
-278 4 -6 44 9 44 16 0 12 -1234 1675 -1245 1679 -6 1 -16 -1 -23 -5z"/>
<path d="M705 3303 c-10 -14 -91 -123 -181 -241 -90 -118 -164 -218 -164 -224
0 -5 15 -6 33 -3 17 3 139 18 269 35 l238 29 244 -143 243 -144 164 40 164 41
314 -187 c173 -103 321 -184 329 -181 7 3 12 13 10 22 -2 10 -317 203 -818
500 -448 266 -818 483 -821 483 -4 0 -15 -12 -24 -27z"/>
<path d="M3650 2682 c-281 -171 -456 -284 -458 -295 -2 -9 0 -17 5 -17 20 0
928 558 928 570 0 7 -4 14 -10 16 -5 1 -215 -122 -465 -274z"/>
<path d="M4305 2493 c-286 -79 -522 -146 -524 -149 -3 -2 0 -9 7 -16 8 -8 143
26 532 133 435 120 520 147 520 161 0 10 -3 18 -7 17 -5 0 -242 -66 -528 -146z"/>
<path d="M1205 2453 c-59 -16 -95 -67 -95 -133 0 -107 94 -168 195 -126 89 38
102 186 21 239 -27 18 -90 29 -121 20z"/>
<path d="M3465 2416 c-106 -49 -113 -185 -13 -246 82 -50 192 7 204 106 13
101 -99 183 -191 140z"/>
<path d="M693 2340 c-86 -52 -82 -189 6 -235 42 -21 107 -19 146 5 32 20 65
80 65 118 -1 36 -39 101 -69 116 -41 22 -109 20 -148 -4z"/>
<path d="M1843 2340 c-86 -52 -82 -189 6 -235 39 -19 104 -19 142 1 31 16 69
81 69 119 0 38 -38 103 -69 119 -41 22 -109 20 -148 -4z"/>
<path d="M2993 2340 c-64 -39 -83 -128 -40 -191 28 -42 60 -59 115 -59 60 0
100 23 123 73 23 52 23 66 3 117 -30 74 -129 104 -201 60z"/>
<path d="M4143 2340 c-115 -70 -65 -250 69 -250 66 0 105 22 129 73 23 51 23
66 4 114 -31 76 -130 107 -202 63z"/>
<path d="M1430 2119 c-118 -26 -216 -49 -217 -49 -10 -1 0 -40 10 -41 6 0 -35
-13 -93 -28 -102 -27 -106 -27 -123 -9 -27 27 -52 22 -138 -27 -43 -25 -82
-45 -86 -45 -4 1 -30 33 -58 72 -27 39 -63 79 -80 90 -66 40 -146 14 -248 -82
-79 -73 -145 -170 -154 -224 -5 -32 -12 -41 -42 -53 -20 -8 -38 -17 -40 -18
-5 -5 31 -95 38 -95 4 0 24 12 44 26 21 14 41 24 43 21 6 -6 34 -107 34 -122
0 -6 -62 -21 -137 -34 -163 -27 -183 -37 -183 -89 0 -43 7 -55 37 -71 17 -9
61 -4 220 23 166 29 201 38 215 57 20 24 22 40 9 86 -9 30 -8 31 9 21 12 -8
38 -71 74 -183 31 -95 64 -179 74 -188 41 -37 122 -7 122 44 0 11 -28 106 -61
211 l-61 190 -83 65 c-81 64 -83 66 -69 89 10 15 39 29 87 44 40 11 83 24 96
28 18 6 30 2 53 -21 37 -37 47 -34 188 48 102 60 125 69 276 106 90 23 161 45
158 50 -3 5 2 9 11 9 24 0 12 24 -15 30 -16 4 32 21 153 54 97 27 177 53 177
58 0 12 -4 11 -240 -43z"/>
<path d="M2580 2119 c-118 -26 -216 -49 -217 -49 -10 -1 0 -40 10 -41 6 0 -35
-13 -93 -28 -100 -26 -105 -26 -122 -9 -27 27 -56 22 -138 -27 -41 -25 -79
-45 -85 -44 -5 0 -32 32 -60 71 -77 110 -131 131 -223 87 -99 -48 -245 -219
-259 -303 -5 -32 -12 -41 -42 -53 -20 -8 -38 -17 -40 -18 -5 -5 31 -95 38 -95
4 0 24 12 44 26 21 14 41 24 43 21 6 -6 34 -107 34 -122 0 -6 -62 -21 -137
-34 -163 -27 -183 -37 -183 -89 0 -43 7 -55 37 -71 17 -9 61 -4 220 23 166 29
201 38 215 57 20 24 22 40 9 86 -9 30 -8 31 10 20 12 -8 37 -68 73 -182 31
-96 64 -179 74 -188 41 -37 122 -8 122 44 0 12 -27 106 -61 211 l-61 190 -83
65 c-81 64 -83 66 -69 89 10 15 39 29 87 44 40 11 83 24 96 28 18 6 30 2 52
-20 15 -15 35 -28 44 -28 9 0 71 32 137 70 112 66 131 73 284 111 90 23 161
45 158 50 -3 5 2 9 11 9 24 0 12 24 -15 30 -16 4 32 21 153 54 97 27 177 53
177 58 0 12 -4 11 -240 -43z"/>
<path d="M3730 2119 c-118 -26 -216 -49 -217 -49 -10 -1 0 -40 10 -41 6 0 -35
-13 -93 -28 -100 -26 -105 -26 -122 -9 -27 27 -56 22 -138 -27 -41 -25 -79
-45 -85 -44 -5 0 -32 32 -60 71 -77 110 -131 131 -223 87 -99 -48 -245 -219
-259 -303 -5 -32 -12 -41 -42 -53 -20 -8 -38 -17 -40 -18 -5 -5 31 -95 38 -95
4 0 24 12 44 26 21 14 41 24 43 21 6 -6 34 -107 34 -122 0 -6 -62 -21 -137
-34 -165 -27 -183 -37 -183 -91 0 -39 16 -64 48 -74 9 -3 105 10 212 29 163
28 198 38 213 56 19 24 21 40 8 86 -9 30 -8 31 10 20 13 -8 36 -65 74 -183 31
-95 63 -178 73 -187 41 -37 122 -7 122 44 0 12 -27 107 -61 211 l-60 189 -84
66 c-81 64 -83 66 -69 89 10 15 39 29 87 44 40 11 83 24 96 28 18 6 30 2 52
-20 15 -15 35 -28 44 -28 9 0 71 32 138 70 113 66 133 74 284 112 90 22 160
44 157 49 -3 5 2 9 11 9 24 0 12 24 -15 30 -16 4 32 21 153 54 97 27 177 53
177 58 0 12 -4 11 -240 -43z"/>
<path d="M4880 2119 c-118 -26 -216 -49 -217 -49 -10 -1 0 -40 10 -41 6 0 -35
-13 -93 -28 -100 -26 -105 -26 -122 -9 -27 27 -56 22 -138 -27 -41 -25 -79
-45 -85 -44 -5 0 -32 32 -60 71 -77 110 -131 131 -223 87 -99 -48 -245 -219
-259 -303 -5 -32 -12 -41 -42 -53 -20 -8 -38 -17 -40 -18 -5 -5 31 -95 38 -95
4 0 24 12 44 26 21 14 41 24 43 21 6 -6 34 -107 34 -122 0 -6 -62 -21 -137
-34 -165 -27 -183 -37 -183 -91 0 -39 16 -64 48 -74 9 -3 105 10 212 29 163
28 198 38 213 56 19 24 21 40 8 86 -9 30 -8 31 10 20 14 -8 36 -64 74 -183 31
-94 63 -178 73 -187 41 -38 122 -7 122 46 0 12 -27 106 -60 209 l-60 187 -78
62 c-42 34 -80 65 -84 68 -4 3 1 16 10 28 11 15 48 32 112 51 l96 29 17 -24
c34 -44 56 -40 188 37 114 65 135 74 282 111 151 38 201 60 181 79 -5 4 -18
10 -29 12 -11 2 60 25 158 52 97 27 177 53 177 58 0 12 -4 11 -240 -43z"/>
</g>
</svg>
