<?xml version="1.0" standalone="no"?>
<!DOCTYPE svg PUBLIC "-//W3C//DTD SVG 20010904//EN"
 "http://www.w3.org/TR/2001/REC-SVG-20010904/DTD/svg10.dtd">
<svg version="1.0" xmlns="http://www.w3.org/2000/svg"
 width="512.000000pt" height="512.000000pt" viewBox="0 0 512.000000 512.000000"
 preserveAspectRatio="xMidYMid meet">
<metadata>
Created by potrace 1.16, written by Peter Selinger 2001-2019
</metadata>
<g transform="translate(0.000000,512.000000) scale(0.100000,-0.100000)"
fill="#000000" stroke="none">
<path d="M528 4941 c-161 -52 -299 -190 -348 -349 -19 -61 -20 -94 -20 -672 0
-578 1 -611 20 -672 49 -159 189 -299 349 -348 60 -19 95 -20 665 -20 656 0
664 1 770 58 114 62 219 188 256 310 19 61 20 94 20 672 0 576 -1 611 -20 671
-49 160 -189 300 -348 349 -61 19 -93 20 -676 19 -563 0 -615 -2 -668 -18z"/>
<path d="M3248 4941 c-161 -52 -299 -190 -348 -349 -19 -61 -20 -94 -20 -672
0 -578 1 -611 20 -672 49 -159 189 -299 349 -348 60 -19 95 -20 665 -20 656 0
664 1 770 58 114 62 219 188 256 310 19 61 20 94 20 672 0 576 -1 611 -20 671
-49 160 -189 300 -348 349 -61 19 -93 20 -676 19 -563 0 -615 -2 -668 -18z"/>
<path d="M528 2221 c-161 -52 -299 -190 -348 -349 -19 -61 -20 -94 -20 -672 0
-578 1 -611 20 -672 49 -159 189 -299 349 -348 60 -19 95 -20 665 -20 656 0
664 1 770 58 114 62 219 188 256 310 19 61 20 94 20 672 0 576 -1 611 -20 671
-49 160 -189 300 -348 349 -61 19 -93 20 -676 19 -563 0 -615 -2 -668 -18z"/>
<path d="M3705 2224 c-190 -42 -359 -132 -500 -266 -147 -140 -232 -279 -291
-474 -36 -120 -45 -357 -19 -485 40 -198 128 -368 269 -516 136 -143 277 -230
473 -290 83 -25 100 -27 283 -27 184 0 200 2 284 27 197 61 335 146 474 292
138 146 228 317 267 514 26 128 17 365 -19 485 -57 189 -141 329 -279 463
-135 131 -259 204 -443 259 -78 24 -109 27 -259 30 -127 3 -188 0 -240 -12z"/>
</g>
</svg>
